<?xml version="1.0" encoding="utf-8"?>
<!-- Generator: Adobe Illustrator 18.0.0, SVG Export Plug-In . SVG Version: 6.00 Build 0)  -->
<!DOCTYPE svg PUBLIC "-//W3C//DTD SVG 1.1//EN" "http://www.w3.org/Graphics/SVG/1.1/DTD/svg11.dtd" [
	<!ENTITY ns_flows "http://ns.adobe.com/Flows/1.0/">
	<!ENTITY ns_extend "http://ns.adobe.com/Extensibility/1.0/">
	<!ENTITY ns_ai "http://ns.adobe.com/AdobeIllustrator/10.0/">
	<!ENTITY ns_graphs "http://ns.adobe.com/Graphs/1.0/">
	<!ENTITY ns_vars "http://ns.adobe.com/Variables/1.0/">
	<!ENTITY ns_imrep "http://ns.adobe.com/ImageReplacement/1.0/">
	<!ENTITY ns_sfw "http://ns.adobe.com/SaveForWeb/1.0/">
	<!ENTITY ns_custom "http://ns.adobe.com/GenericCustomNamespace/1.0/">
	<!ENTITY ns_adobe_xpath "http://ns.adobe.com/XPath/1.0/">
]>
<svg version="1.1" id="Camada_1" xmlns:x="&ns_extend;" xmlns:i="&ns_ai;" xmlns:graph="&ns_graphs;"
	 xmlns="http://www.w3.org/2000/svg" xmlns:xlink="http://www.w3.org/1999/xlink" xmlns:a="http://ns.adobe.com/AdobeSVGViewerExtensions/3.0/"
	 x="0px" y="0px" viewBox="0 0 54.7 49.3" enable-background="new 0 0 54.7 49.3" xml:space="preserve">
<metadata>
	<sfw  xmlns="&ns_sfw;">
		<slices></slices>
		<sliceSourceBounds  width="53.8" height="49.3" x="65.1" y="-63.6" bottomLeftOrigin="true"></sliceSourceBounds>
	</sfw>
</metadata>
<path d="M0.9,37.3h2.6v6.6c0,0,0,2.8,2.2,2.8c2.6,0,2.6-2.8,2.6-2.8v-6.6h2.7V49H8.5v-0.7c0,0-1,1-2.8,1c-3,0-4.1-1.9-4.5-3.2
	c-0.3-1.3-0.2-2.1-0.2-2.1L0.9,37.3L0.9,37.3z"/>
<path d="M22,49h-2.6v-6.6c0,0,0-2.8-2.2-2.8c-2.6,0-2.6,2.8-2.6,2.8V49h-2.7V37.3h2.6v0.7c0,0,1-1,2.8-1c2.9,0,4.1,1.9,4.5,3.2
	c0.3,1.3,0.3,2.1,0.3,2.1L22,49L22,49z"/>
<path d="M28.3,39.5c2.7,0,3.3,2.4,3.3,2.4h-6.5C25.1,41.9,25.6,39.5,28.3,39.5 M31.6,44.3h2.9c0.1-0.4,0.1-0.8,0.1-1.2
	c0-3.4-2.8-6.2-6.2-6.2s-6.2,2.8-6.2,6.2c0,3.4,2.8,6.2,6.2,6.2c2.8,0,5.1-1.8,5.9-4.3h-2.9c-0.4,0.7-1.2,1.7-3,1.7
	c-2.7,0-3.3-2.4-3.3-2.4h5.4C30.4,44.3,31.6,44.3,31.6,44.3z"/>
<path d="M40.3,40.7c0,0,0.1-1.3-1.4-1.3c-1.3,0-1.3,1-1.3,1s0,0.4,0.5,0.7s1.2,0.5,1.2,0.5s1,0.3,2,0.7c0.5,0.2,1,0.5,1.3,0.7
	c0.8,0.7,1.2,2.1,0.9,3.4c-0.1,0.5-0.5,1.2-1.1,1.7c-0.8,0.7-2,1.2-3.6,1.2c-4.5,0-4.8-3.7-4.8-3.7l-0.1-0.8h3c0,0-0.3,1.9,1.9,2
	c0,0,1.7,0,1.7-1.2c0,0,0.1-0.4-0.5-0.9c-0.6-0.5-2.4-0.7-3.7-1.4c-0.4-0.2-0.8-0.5-1.1-0.8c-0.4-0.5-0.8-1.2-0.8-2
	c0,0,0-0.9,0.6-1.7c0.6-0.9,1.8-1.8,3.9-1.8c0,0,4.5-0.3,4.5,3.8L40.3,40.7L40.3,40.7L40.3,40.7z"/>
<path d="M48.9,46.7L48.9,46.7c-0.1,0-0.1,0-0.1,0c0,0,0,0,0,0l0,0c0,0,0,0,0,0c-2.4,0-3.1-2-3.2-2.4c-0.1-0.4-0.2-0.8-0.2-1.3
	c0-0.5,0.1-1.1,0.3-1.5c0.2-0.6,0.8-1.6,2.1-2c0.3-0.1,0.7-0.2,1.1-0.2c0.4,0,0.9,0.1,1.3,0.3c0.7,0.3,1.1,0.7,1.4,1.1
	c0.2,0.2,0.3,0.5,0.4,0.8h2.8c-0.7-2.7-3.1-4.7-6-4.7c-3.4,0-6.2,2.8-6.2,6.2c0,3.4,2.8,6.2,6.2,6.2c3.4,0,5.2-2.2,6-4.7h-3
	C51.4,45.2,50.5,46.7,48.9,46.7"/>
<g>
	<path fill="#AFCA0B" d="M25.5,23.3L25.5,23.3L25.5,23.3c2-0.9,4.3-2.7,7.9-6.4c6-6.5,13.2-10.8,15.3-12.1c-2,1.9-3.7,3.8-4.9,5.7
		c-1.6,2.4-2.2,3.6-4.5,7.6c-2.2,3.9-3.4,8.7-8,12.6l0,0l0,0c-2.3,1.9-5.1,3-8.1,3c-7.5,0-13.6-6.8-13.6-15.1c0-2.8,0.7-5.4,1.9-7.6
		l0,0.3c-0.1,0.5-0.1,1-0.1,1.6c0,6.3,4.6,11.4,10.2,11.4C22.9,24.2,24.2,23.9,25.5,23.3"/>
	<path fill="#009640" d="M24.4,18.3L24.4,18.3L24.4,18.3c1.4-1.1,2.9-2.8,5.1-6.3c3.7-6.1,8.6-10.6,10-12c-1.3,1.8-2.3,3.6-2.9,5.3
		c-0.8,2.2-1.1,3.2-2.3,6.7c-1.1,3.4-1.2,7.4-4.2,11.2l0,0l0,0c-1.5,1.9-3.5,3.2-5.9,3.7c-5.9,1.2-11.8-3.1-13.2-9.6
		c-0.5-2.2-0.4-4.3,0.2-6.3l0.1,0.2c0,0.4,0.1,0.8,0.2,1.2c1,4.9,5.5,8.2,9.9,7.2C22.6,19.4,23.6,19,24.4,18.3"/>
	<path fill="#E30613" d="M19.8,3.3c3.7,0,6.7,3,6.7,6.7s-3,6.7-6.7,6.7s-6.7-3-6.7-6.7S16.1,3.3,19.8,3.3"/>
</g>
</svg>
